<svg width="50" height="42" viewBox="0 0 50 42" fill="none" xmlns="http://www.w3.org/2000/svg">
<path d="M45.3511 13.5653C43.7858 13.5653 42.5147 14.8358 42.5147 16.3959C42.5147 17.9572 43.7858 19.2259 45.3511 19.2259C46.9112 19.2259 48.1811 17.9566 48.1811 16.3959C48.1811 14.8358 46.9106 13.5653 45.3511 13.5653ZM4.65472 13.5653C3.08938 13.5653 1.81828 14.8358 1.81828 16.3959C1.81828 17.9572 3.08938 19.2259 4.65472 19.2259C6.21598 19.2259 7.48651 17.9566 7.48651 16.3959C7.48651 14.8358 6.21598 13.5653 4.65472 13.5653ZM36.9261 8.41687C34.6019 8.41687 32.7168 10.3067 32.7168 12.6326C32.7168 14.9538 34.6019 16.8401 36.9261 16.8401C39.2508 16.8401 41.1418 14.9538 41.1418 12.6326C41.1418 10.309 39.2508 8.41687 36.9261 8.41687ZM50 34.0356H45.2005V25.2018C45.2005 23.6841 44.7545 22.2752 44.0381 21.0465C44.4603 20.9233 44.8935 20.8355 45.3511 20.8355C47.9102 20.8355 50 22.9253 50 25.4908V34.0356ZM13.0733 8.41687C10.7474 8.41687 8.85763 10.3067 8.85763 12.6326C8.85763 14.9538 10.7474 16.8401 13.0733 16.8401C15.3917 16.8401 17.2815 14.9538 17.2815 12.6326C17.2815 10.309 15.3923 8.41687 13.0733 8.41687ZM4.65472 20.8355C5.11234 20.8355 5.53973 20.9227 5.96304 21.0465C5.2391 22.2752 4.80067 23.6841 4.80067 25.2018V34.0356H0V25.4908C0 22.9247 2.09099 20.8355 4.65472 20.8355ZM24.9953 0C21.5646 0 18.7677 2.79399 18.7677 6.2282C18.7677 9.66181 21.5617 12.4593 24.9953 12.4593C28.4296 12.4593 31.227 9.66181 31.227 6.2282C31.2299 2.79341 28.4296 0 24.9953 0ZM43.659 37.3232H36.3062V23.8824C36.3062 22.0339 35.8184 20.3145 35.0299 18.773C35.6317 18.595 36.2644 18.4689 36.9267 18.4689C40.6365 18.4689 43.659 21.4856 43.659 25.2018V37.3232ZM13.6862 23.8824V37.3232H6.34275V25.2018C6.34275 21.489 9.36119 18.4689 13.0768 18.4689C13.7391 18.4689 14.3654 18.595 14.966 18.773C14.177 20.3145 13.6862 22.0339 13.6862 23.8824ZM15.2277 41.2139H34.7642V23.8824C34.7642 18.4956 30.3804 14.1148 24.9948 14.1148C19.6051 14.1148 15.2277 18.4956 15.2277 23.8824V41.2139Z" fill="white"/>
</svg>
