<svg width="51" height="39" viewBox="0 0 51 39" fill="none" xmlns="http://www.w3.org/2000/svg">
<path d="M31.7989 0.518293L30.0706 0.0425144C29.8481 -0.031979 29.629 -0.00855238 29.4159 0.112598C29.2021 0.233845 29.0577 0.415864 28.9835 0.65836L18.5883 36.7865C18.5141 37.0291 18.5373 37.2579 18.6581 37.4721C18.7788 37.6868 18.9597 37.8314 19.2016 37.9059L20.9294 38.3819C21.1524 38.4569 21.3707 38.4334 21.5844 38.3121C21.7982 38.1902 21.9423 38.0088 22.0164 37.7667L32.4119 1.63795C32.486 1.39545 32.463 1.16668 32.342 0.951923C32.2212 0.737264 32.0405 0.592688 31.7989 0.518293Z" fill="white"/>
<path d="M16.2202 7.57082C16.2202 7.32833 16.1271 7.11357 15.9414 6.92714L14.5477 5.52784C14.362 5.34131 14.1482 5.2478 13.9067 5.2478C13.6652 5.2478 13.4514 5.34141 13.2657 5.52784L0.278784 18.5685C0.0927329 18.755 0 18.9697 0 19.2122C0 19.4547 0.0930258 19.6693 0.278784 19.8558L13.2656 32.8964C13.4513 33.0833 13.6647 33.1762 13.9066 33.1762C14.1485 33.1762 14.362 33.083 14.5477 32.8964L15.9413 31.4979C16.127 31.3115 16.2201 31.0967 16.2201 30.8539C16.2201 30.6117 16.127 30.3971 15.9413 30.2107L4.98874 19.2122L15.9414 8.2145C16.1274 8.02807 16.2202 7.81332 16.2202 7.57082Z" fill="white"/>
<path d="M50.7215 18.5682L37.7343 5.52756C37.5486 5.34114 37.3348 5.24753 37.0937 5.24753C36.8518 5.24753 36.6387 5.34114 36.4523 5.52756L35.0593 6.92677C34.8736 7.1133 34.781 7.32766 34.781 7.57045C34.781 7.81324 34.8735 8.0277 35.0593 8.21413L46.0121 19.2121L35.0593 30.2107C34.8736 30.3971 34.781 30.6119 34.781 30.854C34.781 31.0969 34.8735 31.3115 35.0593 31.4979L36.4523 32.8965C36.6387 33.0833 36.8519 33.1762 37.0937 33.1762C37.3349 33.1762 37.5486 33.083 37.7343 32.8965L50.7215 19.8559C50.9073 19.6695 51.0001 19.4544 51.0001 19.2119C51.0001 18.9693 50.9073 18.7547 50.7215 18.5682Z" fill="white"/>
</svg>
