<svg width="40" height="40" viewBox="0 0 40 40" fill="none" xmlns="http://www.w3.org/2000/svg">
<path d="M35.7088 0H4.29119C1.92123 0 0 1.92123 0 4.29119V35.7088C0 38.0788 1.92123 40 4.29119 40H35.7088C38.0788 40 40 38.0788 40 35.7088V4.29119C40 1.92123 38.0788 0 35.7088 0Z" fill="black"/>
<path fill-rule="evenodd" clip-rule="evenodd" d="M26.3601 15.3257C26.5134 15.0191 26.8199 15.0191 26.8199 14.5594C26.2068 14.5594 25.7471 15.0191 25.4406 15.1724L15.1724 21.6092L17.1647 27.8927C17.4712 27.5862 17.4712 27.2797 17.4712 26.6667C17.4712 26.3601 17.6245 25.7471 17.6245 25.4406V24.3678C17.7777 24.2145 17.7777 24.0613 17.7777 23.7548C17.7777 23.6015 17.7777 23.4483 17.7777 23.295C17.931 22.9885 18.0842 23.1417 18.2375 22.8352C20.5363 20.3831 23.7547 17.6245 26.3601 15.3257Z" fill="#CCD8E6"/>
<path fill-rule="evenodd" clip-rule="evenodd" d="M10.1149 19.7701L15.1724 21.6092L25.9004 14.8659C26.2069 14.7126 26.5134 14.5594 26.8199 14.5594C26.8199 15.0192 26.2069 15.4789 25.9004 15.7854C23.6015 17.7778 19.7701 20.6897 17.7778 22.9885L19.6168 24.3678C19.9234 24.3678 20.6896 25.1341 20.8429 25.2874C21.1494 25.4406 22.3755 26.3602 22.5287 26.6667C22.8352 26.6667 22.8352 26.8199 22.9885 26.9732L24.5211 28.046C25.1341 28.5057 25.7471 29.272 26.8199 28.5057L30.1915 13.1801C30.6513 10.5747 29.4253 11.0345 27.7394 11.6475L10.5747 18.5441C9.96167 18.8506 9.34864 19.6169 10.1149 19.7701Z" fill="#FEFEFE"/>
<path fill-rule="evenodd" clip-rule="evenodd" d="M17.1648 27.8927L17.3181 28.046C17.6246 28.046 17.9311 27.8927 18.2376 27.5862L20.843 25.2873C20.6897 25.1341 19.9234 24.3678 19.6169 24.3678L17.7778 22.9885L17.1648 27.8927Z" fill="#ABBDD5"/>
<path fill-rule="evenodd" clip-rule="evenodd" d="M40.0001 21.3027L30.0384 11.341C30.3449 11.6475 30.3449 12.1073 30.1917 13.1801L26.82 28.5057C25.7472 29.272 25.1342 28.5057 24.5212 28.046L22.9886 26.9732C22.8354 26.8199 22.8354 26.6667 22.5288 26.6667C22.3756 26.3601 21.1495 25.4406 20.843 25.2873L18.2377 27.5862C17.9311 27.7395 17.6246 27.8927 17.3181 28.046L29.4254 40H35.7089L40.0001 35.7088V21.3027Z" fill="black"/>
<path fill-rule="evenodd" clip-rule="evenodd" d="M10.115 19.7701L16.705 26.5134L15.1725 21.6092L10.115 19.7701Z" fill="black"/>
</svg>
