<svg width="40" height="40" viewBox="0 0 40 40" fill="none" xmlns="http://www.w3.org/2000/svg">
<path d="M20 40C31.0457 40 40 31.0457 40 20C40 8.95431 31.0457 0 20 0C8.95431 0 0 8.95431 0 20C0 31.0457 8.95431 40 20 40Z" fill="black"/>
<path d="M31.9499 21.6093V29.8549H27.1694V22.1619C27.1694 20.2303 26.4792 18.9112 24.7483 18.9112C23.4274 18.9112 22.6427 19.7993 22.2961 20.6592C22.1703 20.9665 22.1378 21.3933 22.1378 21.8243V29.8545H17.3569C17.3569 29.8545 17.4211 16.8252 17.3569 15.4765H22.1382V17.514C22.1286 17.53 22.115 17.5457 22.1065 17.5611H22.1382V17.514C22.7735 16.5364 23.9065 15.1389 26.4467 15.1389C29.5919 15.1389 31.9499 17.1938 31.9499 21.6093ZM12.3557 8.54576C10.7203 8.54576 9.65039 9.61924 9.65039 11.0296C9.65039 12.4101 10.6893 13.5146 12.2929 13.5146H12.3239C13.9914 13.5146 15.0281 12.4101 15.0281 11.0296C14.9964 9.61924 13.9914 8.54576 12.3557 8.54576ZM9.93454 29.8549H14.7137V15.4765H9.93454V29.8549Z" fill="#F1F2F2"/>
</svg>
