<svg width="41" height="33" viewBox="0 0 41 33" fill="none" xmlns="http://www.w3.org/2000/svg">
<path d="M20.7029 3.80233C19.2856 2.27447 11.1413 -3.03311 0 2.37518C0 2.4565 0 3.95572 0 6.24036V32.0436H16.8805C17.4599 32.6031 18.837 33 20.4496 33C22.0588 33 23.4393 32.6031 24.0207 32.0436H41V6.24036C41 3.95572 41 2.4565 41 2.37518C30.3174 -2.93054 21.7812 2.68196 20.7029 3.80233ZM19.1892 30.1965C19.1892 29.1796 11.2643 23.2363 2.11396 29.7211V4.56327C3.92616 3.39161 6.36361 2.67411 9.05403 2.67411C14.6542 2.67411 19.1892 4.74483 19.1892 8.58599V30.1965ZM39.0168 29.7211C29.8664 23.2363 21.9465 29.1796 21.9465 30.1965V8.58645C21.9465 4.7453 26.4819 2.67457 32.0764 2.67457C34.7668 2.67457 37.2042 3.39207 39.0168 4.56373V29.7211Z" fill="white"/>
</svg>
