<svg width="51" height="30" viewBox="0 0 51 30" fill="none" xmlns="http://www.w3.org/2000/svg">
<path d="M39.5155 16.9142C39.5155 16.9142 33.956 11.1727 26.2948 11.1727C18.8092 11.1727 11.4095 16.9142 11.4095 16.9142L7.2532 15.157V20.3123C7.90818 20.5379 8.38761 21.1486 8.38761 21.8881C8.38761 22.6349 7.89849 23.2468 7.23383 23.4675L8.46267 26.9392H4.83547L6.0752 23.4381C5.47955 23.1818 5.06307 22.5858 5.06307 21.8881C5.06307 21.205 5.46744 20.6238 6.04494 20.3589V14.6456L0 12.0925L26.5975 0L51 12.2445L39.5155 16.9142ZM25.9921 14.0815C33.6993 14.0815 37.4767 18.2141 37.4767 18.2141V26.7859C37.4767 26.7859 33.548 30 25.388 30C17.228 30 14.5076 26.7859 14.5076 26.7859V18.2141C14.5076 18.2141 18.2849 14.0815 25.9921 14.0815ZM25.8408 28.163C31.1823 28.163 35.5129 27.0655 35.5129 25.7141C35.5129 24.3627 31.1823 23.2652 25.8408 23.2652C20.4993 23.2652 16.1699 24.3627 16.1699 25.7141C16.1699 27.0655 20.4993 28.163 25.8408 28.163Z" fill="white"/>
</svg>
