<svg width="43" height="45" viewBox="0 0 43 45" fill="none" xmlns="http://www.w3.org/2000/svg">
<path d="M13.7587 31.1789C19.0675 30.1517 29.4993 27.6968 33.8925 23.6168C33.483 23.0407 28.1796 20.294 28.1796 20.294C28.1796 20.294 34.4943 20.294 37.0499 20.294C41.4095 19.6918 43 0 43 0C43 0 24.8715 9.87851 20.0599 16.0438C15.2491 22.211 10.532 31.7451 10.532 31.7451L10.5347 31.7443C4.57458 38.1079 0 43.1799 0 43.1799L5.01476 40.5031L13.7587 31.1789ZM40.8404 3.29923C40.6411 4.94059 40.3586 6.99875 39.978 9.09045C38.5635 16.8809 37.0768 18.2841 36.8009 18.4834H28.1796C27.347 18.4834 26.6217 19.0549 26.4269 19.8667C26.2311 20.6793 26.6127 21.5207 27.3524 21.904C28.4783 22.4882 29.7295 23.1622 30.7344 23.7293C26.7859 26.1734 20.4803 27.8835 15.9103 28.8845L38.7685 4.51224C39.5189 4.06825 40.2197 3.65794 40.8404 3.29923ZM21.4796 17.1616C24.0804 13.8289 31.0148 9.22351 36.485 5.88538C32.3408 9.69725 26.7822 14.9313 21.5004 20.295C19.4347 22.3921 17.3273 24.5761 15.2778 26.7267C17.0008 23.6938 19.238 20.035 21.4796 17.1616ZM24.3737 38.1605C29.8881 38.7746 35.2854 40.0437 40.5112 41.773C37.8077 41.2631 35.1105 40.7685 32.3933 40.4215C29.6843 40.0365 26.9663 39.7411 24.2556 39.569C21.9048 39.445 19.5567 39.3932 17.2373 39.5717C17.7325 39.6605 18.2297 39.7483 18.7257 39.8389C20.0762 40.0916 21.4338 40.3425 22.8041 40.6624C23.4925 40.8308 24.1717 40.9949 24.9032 41.281C25.0873 41.3561 25.2758 41.4377 25.4895 41.5646C25.5978 41.6307 25.7133 41.7041 25.8486 41.8308C25.9721 41.9622 26.1742 42.1451 26.2437 42.5728C26.3014 43.0185 26.065 43.3618 25.9252 43.5049C25.771 43.6653 25.6446 43.7404 25.5301 43.811L25.3497 43.9062L25.209 43.9705L24.9149 44.0836C23.3949 44.5656 22.021 44.6145 20.6128 44.7059C19.2163 44.7747 17.8298 44.7649 16.4478 44.7268C10.9197 44.5791 5.44315 43.993 0.000842185 43.1796C2.75308 43.2176 5.4955 43.321 8.2396 43.3227C10.981 43.3644 13.7216 43.3742 16.4496 43.3181C17.8127 43.2819 19.1721 43.223 20.5162 43.1243C21.5573 43.0337 22.6406 42.9242 23.5914 42.6905C23.2081 42.5791 22.8102 42.4767 22.407 42.3843C21.1 42.0927 19.754 41.8572 18.4036 41.618C17.0505 41.3616 15.7072 41.1324 14.3072 40.78C13.9382 40.6722 13.628 40.6151 13.121 40.3534C13.0452 40.3063 12.9749 40.2673 12.8604 40.1659C12.7711 40.069 12.5464 39.9032 12.5113 39.424C12.5031 39.1956 12.5924 38.9846 12.6745 38.8651C12.7548 38.7427 12.8414 38.6658 12.8956 38.6196C13.0273 38.5162 13.104 38.4828 13.186 38.4401C13.4737 38.3106 13.6587 38.2762 13.8599 38.2291C14.624 38.0734 15.2996 38.0045 16.0132 37.9474C18.8177 37.7383 21.6186 37.8443 24.3737 38.1605Z" fill="white"/>
</svg>
