<svg width="39" height="60" viewBox="0 0 39 60" fill="none" xmlns="http://www.w3.org/2000/svg">
<path d="M26.4219 13.1284C22.2158 10.2905 16.7812 10.2905 12.5775 13.1284C7.16011 16.7798 5.42585 23.8956 8.54406 29.6785L19.4997 50L30.4554 29.6785C33.5736 23.8956 31.8418 16.7798 26.4219 13.1284ZM28.2919 28.4855L19.5022 44.7911L10.71 28.4855C8.20855 23.8432 9.59744 18.1351 13.9466 15.2049C15.634 14.0668 17.5656 13.4953 19.4997 13.4953C21.4338 13.4953 23.3654 14.0643 25.0528 15.2024C29.402 18.1351 30.7934 23.8432 28.2919 28.4855Z" fill="black"/>
<path d="M19.5 16.9997C15.9172 16.9997 13 19.9169 13 23.4997C13 27.0825 15.9172 29.9997 19.5 29.9997C23.0828 29.9997 26 27.0825 26 23.4997C26 19.9169 23.0854 16.9997 19.5 16.9997ZM19.5 27.3997C17.3498 27.3997 15.6 25.6499 15.6 23.4997C15.6 21.3495 17.3498 19.5997 19.5 19.5997C21.6502 19.5997 23.4 21.3495 23.4 23.4997C23.4 25.6499 21.6502 27.3997 19.5 27.3997Z" fill="black"/>
</svg>
