<svg width="41" height="41" viewBox="0 0 41 41" fill="none" xmlns="http://www.w3.org/2000/svg">
<path d="M40.0513 21.9027C38.5578 23.5207 36.5755 24.4126 34.4663 24.4126H23.4727V26.8434C23.4727 27.869 22.7286 28.7099 21.8193 28.7099H19.0097C18.1009 28.7099 17.3569 27.8692 17.3569 26.8434V24.4126H6.36265C4.25381 24.4126 2.27112 23.5207 0.777827 21.9027C0.494096 21.5949 0.234369 21.2682 0 20.9253V37.8702C0 39.5924 1.24736 41 2.77104 41H38.0584C39.5819 41 40.8291 39.5923 40.8291 37.8702V20.9253C40.5944 21.2682 40.3357 21.5949 40.0513 21.9027Z" fill="white"/>
<path d="M38.0585 6.25977H2.77104C1.24736 6.25977 0 7.66854 0 9.3894V17.3729C0.267862 18.6498 0.860283 19.8239 1.73771 20.7741C2.9712 22.1108 4.61409 22.8475 6.36265 22.8475H17.3569V20.4172C17.3569 19.3904 18.1009 18.55 19.0097 18.55H21.8193C22.7286 18.55 23.4727 19.3902 23.4727 20.4172V22.8474H34.4663C36.2148 22.8474 37.8582 22.1108 39.0913 20.774C39.9679 19.8225 40.5614 18.6493 40.8291 17.3719V9.38931C40.8291 7.66854 39.582 6.25977 38.0585 6.25977Z" fill="white"/>
<path d="M15.5697 3.12982C15.5697 3.04101 15.5911 2.91122 15.6922 2.79783C15.7922 2.68434 15.9069 2.65975 15.9861 2.65975H24.8442C24.9222 2.65975 25.0374 2.68443 25.1376 2.79783C25.2385 2.91131 25.2598 3.0411 25.2598 3.12982V4.69478H27.6147V3.12982C27.6145 2.32901 27.3442 1.52821 26.8036 0.916996C26.2622 0.305515 25.5528 0 24.8441 0H15.9861C15.277 0 14.5671 0.305515 14.0261 0.916996C13.4855 1.52803 13.2148 2.32901 13.2148 3.12982V4.69478H15.5697V3.12982Z" fill="white"/>
<path d="M21.8195 27.1447C21.965 27.1447 22.0865 27.0073 22.0865 26.8431V24.4124V22.8474V20.4172C22.0865 20.253 21.965 20.1146 21.8195 20.1146H19.0096C18.8646 20.1146 18.7417 20.253 18.7417 20.4172V22.8474V24.4124V26.8431C18.7417 27.0073 18.8646 27.1447 19.0096 27.1447H21.8195Z" fill="white"/>
</svg>
